# xmcd
#
# Track frame offsets:
#	150
#	14604
#	24530
#	39604
#	52000
#	60712
#	71581
#	85742
#	94274
#	110523
#	127966
#	142107
#	153937
#	165832
#
# Disc length: 2516 seconds
#
# Revision: 0
# Processed by: cddbd v1.5.2PL0 Copyright (c) Steve Scherf et al.
# Submitted via: EasyCDDAExtractor 15.2.5.1
#
DISCID=b909d20e
DTITLE=adrian younge - something about april
DYEAR=1900
DGENRE=
TTITLE0=turn down the sound
TTITLE1=it's me
TTITLE2=anna may
TTITLE3=two hearts combine
TTITLE4=thunderstrike
TTITLE5=reverie
TTITLE6=first step on the moon
TTITLE7=dusts of gold
TTITLE8=midnight blue
TTITLE9=lovely lady
TTITLE10=sound of a man
TTITLE11=sirens
TTITLE12=mourning melodies in rhapsody
TTITLE13=something about april
EXTD=
EXTT0=
EXTT1=
EXTT2=
EXTT3=
EXTT4=
EXTT5=
EXTT6=
EXTT7=
EXTT8=
EXTT9=
EXTT10=
EXTT11=
EXTT12=
EXTT13=
PLAYORDER=
